<?xml version="1.0" encoding="UTF-8"?>
<svg id="Layer_2" data-name="Layer 2" xmlns="http://www.w3.org/2000/svg" viewBox="0 0 280.73 83.85">
  <defs>
    <style>
      .cls-1 {
        fill: #08889f;
      }

      .cls-2 {
        font-size: 24.86px;
      }

      .cls-2, .cls-3, .cls-4, .cls-5 {
        fill: #6965ad;
      }

      .cls-2, .cls-4, .cls-5 {
        font-family: Crassula-Bold, Crassula;
        font-weight: 700;
      }

      .cls-6 {
        fill: #fdc75f;
      }

      .cls-4 {
        font-size: 25.46px;
        letter-spacing: 0em;
      }

      .cls-7 {
        fill: #0989a0;
      }

      .cls-8 {
        letter-spacing: -.07em;
      }

      .cls-5 {
        font-size: 26px;
      }

      .cls-9 {
        fill: #6763ac;
      }

      .cls-10 {
        fill: #e74865;
      }

      .cls-11 {
        letter-spacing: 0em;
      }

      .cls-12 {
        fill: #fdc65d;
      }
    </style>
  </defs>
  <g id="Layer_1-2" data-name="Layer 1">
    <g>
      <path class="cls-3" d="M77.26,53.86c-3.07,12.96-12.76,22.15-22.66,26.5-14.66,6.44-34.57,4.35-45.67-9.28-4.25-5.22-3.4-12.78.89-17.16.18.08,1.41,1.38,1.81,2.2,5.36,10.8,18.38,19.76,31.31,19.58,13.64-.19,26.31-7.43,32.37-20.26.21-.43,1.74-1.65,1.95-1.57Z"/>
      <path class="cls-1" d="M38.77,46.47l-6.11-4.31c-.42-4.21,10.65-.09,12.47.55,5.35,1.91,13.72,5.64,17.8-1.39l2.33-4.01c4.67,9.01,3.21,19-3.5,26.55-5.74,6.46-20.07,12.24-15.41,6.64,3.94-4.73,4.95-14.1-1.07-19.1-1.93-1.6-4.06-3.21-6.51-4.93Z"/>
      <path class="cls-3" d="M3.6,60.62l-.67,3.3c-3.43-8.22-5.04-18.69,2-25.32,11.3-10.64,25.71-4.52,29.62-19.39,5.27,9.16-1.21,20.64-11.36,24.44l-8.16,3.06c-5.38,2.02-11.4,6.67-11.44,13.92Z"/>
      <circle class="cls-9" cx="22.25" cy="12.64" r="8.5"/>
      <circle class="cls-10" cx="31.59" cy="58.4" r="6.99"/>
      <circle class="cls-7" cx="51.34" cy="32.19" r="6.2"/>
      <g>
        <path class="cls-12" d="M46.74,17.52c-.91-.25-2.27-1.68-2.52-2.23l8.13-.78,5.37-.62c1.6-.19,2.96-3.83,2.3-5.2l-2.47-5.05c16.89,9.04,22.05,28.17,16.69,45.45l-2.16-7.54c-4.05-11.7-12.74-20.51-25.33-24.02Z"/>
        <circle class="cls-6" cx="48.56" cy="5.07" r="5.07"/>
      </g>
    </g>
    <g>
      <text class="cls-5" transform="translate(90.01 25.49) scale(.93 1)"><tspan x="0" y="0">Maternal,</tspan></text>
      <text class="cls-4" transform="translate(89.86 50.04) scale(.93 1)"><tspan x="0" y="0">Newborn, Child</tspan></text>
      <text class="cls-2" transform="translate(89.86 74.83) scale(.96 1)"><tspan class="cls-11" x="0" y="0">&amp; </tspan><tspan class="cls-8" x="27.54" y="0">Y</tspan><tspan class="cls-11" x="39.79" y="0">outh Network</tspan></text>
    </g>
  </g>
</svg>